<?xml version="1.0" encoding="UTF-8"?><svg xmlns="http://www.w3.org/2000/svg" xmlns:xlink="http://www.w3.org/1999/xlink" fill-opacity="1" color-rendering="auto" color-interpolation="auto" text-rendering="auto" stroke="black" stroke-linecap="square" width="1020" stroke-miterlimit="10" shape-rendering="auto" stroke-opacity="1" fill="black" stroke-dasharray="none" font-weight="normal" stroke-width="1" height="694" font-family="'Dialog'" font-style="normal" stroke-linejoin="miter" font-size="12px" stroke-dashoffset="0" image-rendering="auto">
  <!--Generated by ySVG 2.5-->
  <defs id="genericDefs"/>
  <g>
    <defs id="defs1">
      <clipPath clipPathUnits="userSpaceOnUse" id="clipPath1">
        <path d="M0 0 L1020 0 L1020 694 L0 694 L0 0 Z"/>
      </clipPath>
      <clipPath clipPathUnits="userSpaceOnUse" id="clipPath2">
        <path d="M212 317 L1232 317 L1232 1011 L212 1011 L212 317 Z"/>
      </clipPath>
    </defs>
    <g fill="white" text-rendering="geometricPrecision" shape-rendering="geometricPrecision" transform="translate(-212,-317)" stroke="white">
      <rect x="212" width="1020" height="694" y="317" clip-path="url(#clipPath2)" stroke="none"/>
    </g>
    <g fill="rgb(255,204,0)" text-rendering="geometricPrecision" shape-rendering="geometricPrecision" transform="matrix(1,0,0,1,-212,-317)" stroke="rgb(255,204,0)">
      <rect x="464" width="144" height="41" y="417" clip-path="url(#clipPath2)" stroke="none"/>
    </g>
    <g text-rendering="geometricPrecision" stroke-miterlimit="1.45" shape-rendering="geometricPrecision" transform="matrix(1,0,0,1,-212,-317)" stroke-linecap="butt">
      <rect fill="none" x="464" width="144" height="41" y="417" clip-path="url(#clipPath2)"/>
      <text x="517.9941" xml:space="preserve" y="442.2139" clip-path="url(#clipPath2)" font-family="sans-serif" stroke="none">Task 1</text>
    </g>
    <g fill="rgb(255,204,0)" text-rendering="geometricPrecision" shape-rendering="geometricPrecision" transform="matrix(1,0,0,1,-212,-317)" stroke="rgb(255,204,0)">
      <rect x="464" width="144" height="41" y="458" clip-path="url(#clipPath2)" stroke="none"/>
    </g>
    <g text-rendering="geometricPrecision" stroke-miterlimit="1.45" shape-rendering="geometricPrecision" transform="matrix(1,0,0,1,-212,-317)" stroke-linecap="butt">
      <rect fill="none" x="464" width="144" height="41" y="458" clip-path="url(#clipPath2)"/>
      <text x="514.3203" xml:space="preserve" y="483.2139" clip-path="url(#clipPath2)" font-family="sans-serif" stroke="none">Action 1</text>
    </g>
    <g fill="rgb(255,204,0)" text-rendering="geometricPrecision" shape-rendering="geometricPrecision" transform="matrix(1,0,0,1,-212,-317)" stroke="rgb(255,204,0)">
      <rect x="310.0667" width="144" height="41" y="591.6" clip-path="url(#clipPath2)" stroke="none"/>
    </g>
    <g text-rendering="geometricPrecision" stroke-miterlimit="1.45" shape-rendering="geometricPrecision" transform="matrix(1,0,0,1,-212,-317)" stroke-linecap="butt">
      <rect fill="none" x="310.0667" width="144" height="41" y="591.6" clip-path="url(#clipPath2)"/>
      <text x="364.0608" xml:space="preserve" y="616.8138" clip-path="url(#clipPath2)" font-family="sans-serif" stroke="none">Task 1</text>
    </g>
    <g fill="rgb(255,204,0)" text-rendering="geometricPrecision" shape-rendering="geometricPrecision" transform="matrix(1,0,0,1,-212,-317)" stroke="rgb(255,204,0)">
      <rect x="310.0667" width="144" height="41" y="632.6" clip-path="url(#clipPath2)" stroke="none"/>
    </g>
    <g text-rendering="geometricPrecision" stroke-miterlimit="1.45" shape-rendering="geometricPrecision" transform="matrix(1,0,0,1,-212,-317)" stroke-linecap="butt">
      <rect fill="none" x="310.0667" width="144" height="41" y="632.6" clip-path="url(#clipPath2)"/>
      <text x="360.387" xml:space="preserve" y="657.8138" clip-path="url(#clipPath2)" font-family="sans-serif" stroke="none">Action 3</text>
    </g>
    <g fill="rgb(255,204,0)" text-rendering="geometricPrecision" shape-rendering="geometricPrecision" transform="matrix(1,0,0,1,-212,-317)" stroke="rgb(255,204,0)">
      <rect x="464" width="144" height="41" y="728.6" clip-path="url(#clipPath2)" stroke="none"/>
    </g>
    <g text-rendering="geometricPrecision" stroke-miterlimit="1.45" shape-rendering="geometricPrecision" transform="matrix(1,0,0,1,-212,-317)" stroke-linecap="butt">
      <rect fill="none" x="464" width="144" height="41" y="728.6" clip-path="url(#clipPath2)"/>
      <text x="517.9941" xml:space="preserve" y="753.8138" clip-path="url(#clipPath2)" font-family="sans-serif" stroke="none">Task 1</text>
    </g>
    <g fill="rgb(255,204,0)" text-rendering="geometricPrecision" shape-rendering="geometricPrecision" transform="matrix(1,0,0,1,-212,-317)" stroke="rgb(255,204,0)">
      <rect x="464" width="144" height="41" y="769.6" clip-path="url(#clipPath2)" stroke="none"/>
    </g>
    <g text-rendering="geometricPrecision" stroke-miterlimit="1.45" shape-rendering="geometricPrecision" transform="matrix(1,0,0,1,-212,-317)" stroke-linecap="butt">
      <rect fill="none" x="464" width="144" height="41" y="769.6" clip-path="url(#clipPath2)"/>
      <text x="514.3203" xml:space="preserve" y="794.8138" clip-path="url(#clipPath2)" font-family="sans-serif" stroke="none">Action 6</text>
    </g>
    <g fill="rgb(255,204,0)" text-rendering="geometricPrecision" shape-rendering="geometricPrecision" transform="matrix(1,0,0,1,-212,-317)" stroke="rgb(255,204,0)">
      <rect x="671" width="144" height="41" y="616" clip-path="url(#clipPath2)" stroke="none"/>
    </g>
    <g text-rendering="geometricPrecision" stroke-miterlimit="1.45" shape-rendering="geometricPrecision" transform="matrix(1,0,0,1,-212,-317)" stroke-linecap="butt">
      <rect fill="none" x="671" width="144" height="41" y="616" clip-path="url(#clipPath2)"/>
      <text x="724.9941" xml:space="preserve" y="641.2139" clip-path="url(#clipPath2)" font-family="sans-serif" stroke="none">Task 3</text>
    </g>
    <g fill="rgb(255,204,0)" text-rendering="geometricPrecision" shape-rendering="geometricPrecision" transform="matrix(1,0,0,1,-212,-317)" stroke="rgb(255,204,0)">
      <rect x="671" width="144" height="41" y="657" clip-path="url(#clipPath2)" stroke="none"/>
    </g>
    <g text-rendering="geometricPrecision" stroke-miterlimit="1.45" shape-rendering="geometricPrecision" transform="matrix(1,0,0,1,-212,-317)" stroke-linecap="butt">
      <rect fill="none" x="671" width="144" height="41" y="657" clip-path="url(#clipPath2)"/>
      <text x="721.3203" xml:space="preserve" y="682.2139" clip-path="url(#clipPath2)" font-family="sans-serif" stroke="none">Action 4</text>
    </g>
    <g fill="rgb(255,204,0)" text-rendering="geometricPrecision" shape-rendering="geometricPrecision" transform="matrix(1,0,0,1,-212,-317)" stroke="rgb(255,204,0)">
      <rect x="795.6" width="144" height="41" y="393" clip-path="url(#clipPath2)" stroke="none"/>
    </g>
    <g text-rendering="geometricPrecision" stroke-miterlimit="1.45" shape-rendering="geometricPrecision" transform="matrix(1,0,0,1,-212,-317)" stroke-linecap="butt">
      <rect fill="none" x="795.6" width="144" height="41" y="393" clip-path="url(#clipPath2)"/>
      <text x="849.5941" xml:space="preserve" y="418.2139" clip-path="url(#clipPath2)" font-family="sans-serif" stroke="none">Task 2</text>
    </g>
    <g fill="rgb(255,204,0)" text-rendering="geometricPrecision" shape-rendering="geometricPrecision" transform="matrix(1,0,0,1,-212,-317)" stroke="rgb(255,204,0)">
      <rect x="795.6" width="144" height="41" y="434" clip-path="url(#clipPath2)" stroke="none"/>
    </g>
    <g text-rendering="geometricPrecision" stroke-miterlimit="1.45" shape-rendering="geometricPrecision" transform="matrix(1,0,0,1,-212,-317)" stroke-linecap="butt">
      <rect fill="none" x="795.6" width="144" height="41" y="434" clip-path="url(#clipPath2)"/>
      <text x="845.9203" xml:space="preserve" y="459.2139" clip-path="url(#clipPath2)" font-family="sans-serif" stroke="none">Action 2</text>
    </g>
    <g fill="rgb(255,204,0)" text-rendering="geometricPrecision" shape-rendering="geometricPrecision" transform="matrix(1,0,0,1,-212,-317)" stroke="rgb(255,204,0)">
      <rect x="853" width="144" height="41" y="803" clip-path="url(#clipPath2)" stroke="none"/>
    </g>
    <g text-rendering="geometricPrecision" stroke-miterlimit="1.45" shape-rendering="geometricPrecision" transform="matrix(1,0,0,1,-212,-317)" stroke-linecap="butt">
      <rect fill="none" x="853" width="144" height="41" y="803" clip-path="url(#clipPath2)"/>
      <text x="906.9941" xml:space="preserve" y="828.2139" clip-path="url(#clipPath2)" font-family="sans-serif" stroke="none">Task 4</text>
    </g>
    <g fill="rgb(255,204,0)" text-rendering="geometricPrecision" shape-rendering="geometricPrecision" transform="matrix(1,0,0,1,-212,-317)" stroke="rgb(255,204,0)">
      <rect x="853" width="144" height="41" y="844" clip-path="url(#clipPath2)" stroke="none"/>
    </g>
    <g text-rendering="geometricPrecision" stroke-miterlimit="1.45" shape-rendering="geometricPrecision" transform="matrix(1,0,0,1,-212,-317)" stroke-linecap="butt">
      <rect fill="none" x="853" width="144" height="41" y="844" clip-path="url(#clipPath2)"/>
      <text x="903.3203" xml:space="preserve" y="869.2139" clip-path="url(#clipPath2)" font-family="sans-serif" stroke="none">Action 7</text>
    </g>
    <g fill="rgb(255,204,0)" text-rendering="geometricPrecision" shape-rendering="geometricPrecision" transform="matrix(1,0,0,1,-212,-317)" stroke="rgb(255,204,0)">
      <rect x="1004.8" width="144" height="41" y="557" clip-path="url(#clipPath2)" stroke="none"/>
    </g>
    <g text-rendering="geometricPrecision" stroke-miterlimit="1.45" shape-rendering="geometricPrecision" transform="matrix(1,0,0,1,-212,-317)" stroke-linecap="butt">
      <rect fill="none" x="1004.8" width="144" height="41" y="557" clip-path="url(#clipPath2)"/>
      <text x="1058.7942" xml:space="preserve" y="582.2139" clip-path="url(#clipPath2)" font-family="sans-serif" stroke="none">Task 2</text>
    </g>
    <g fill="rgb(255,204,0)" text-rendering="geometricPrecision" shape-rendering="geometricPrecision" transform="matrix(1,0,0,1,-212,-317)" stroke="rgb(255,204,0)">
      <rect x="1004.8" width="144" height="41" y="598" clip-path="url(#clipPath2)" stroke="none"/>
    </g>
    <g text-rendering="geometricPrecision" stroke-miterlimit="1.45" shape-rendering="geometricPrecision" transform="matrix(1,0,0,1,-212,-317)" stroke-linecap="butt">
      <rect fill="none" x="1004.8" width="144" height="41" y="598" clip-path="url(#clipPath2)"/>
      <text x="1055.1204" xml:space="preserve" y="623.2139" clip-path="url(#clipPath2)" font-family="sans-serif" stroke="none">Action 5</text>
    </g>
    <g fill="rgb(255,204,0)" text-rendering="geometricPrecision" shape-rendering="geometricPrecision" transform="matrix(1,0,0,1,-212,-317)" stroke="rgb(255,204,0)">
      <rect x="1072.4" width="144" height="41" y="913.4" clip-path="url(#clipPath2)" stroke="none"/>
    </g>
    <g text-rendering="geometricPrecision" stroke-miterlimit="1.45" shape-rendering="geometricPrecision" transform="matrix(1,0,0,1,-212,-317)" stroke-linecap="butt">
      <rect fill="none" x="1072.4" width="144" height="41" y="913.4" clip-path="url(#clipPath2)"/>
      <text x="1126.3942" xml:space="preserve" y="938.6139" clip-path="url(#clipPath2)" font-family="sans-serif" stroke="none">Task 5</text>
    </g>
    <g fill="rgb(255,204,0)" text-rendering="geometricPrecision" shape-rendering="geometricPrecision" transform="matrix(1,0,0,1,-212,-317)" stroke="rgb(255,204,0)">
      <rect x="1072.4" width="144" height="41" y="954.4" clip-path="url(#clipPath2)" stroke="none"/>
    </g>
    <g text-rendering="geometricPrecision" stroke-miterlimit="1.45" shape-rendering="geometricPrecision" transform="matrix(1,0,0,1,-212,-317)" stroke-linecap="butt">
      <rect fill="none" x="1072.4" width="144" height="41" y="954.4" clip-path="url(#clipPath2)"/>
      <text x="1122.7203" xml:space="preserve" y="979.6139" clip-path="url(#clipPath2)" font-family="sans-serif" stroke="none">Action 8</text>
    </g>
    <g fill="rgb(51,204,204)" text-rendering="geometricPrecision" shape-rendering="geometricPrecision" transform="matrix(1,0,0,1,-212,-317)" stroke="rgb(51,204,204)">
      <path d="M671 903.7868 L679.7868 895 L692.2132 895 L701 903.7868 L701 916.2132 L692.2132 925 L679.7868 925 L671 916.2132 Z" fill-rule="evenodd" clip-path="url(#clipPath2)" stroke="none"/>
    </g>
    <g text-rendering="geometricPrecision" stroke-miterlimit="1.45" shape-rendering="geometricPrecision" transform="matrix(1,0,0,1,-212,-317)" stroke-linecap="butt">
      <path fill="none" d="M671 903.7868 L679.7868 895 L692.2132 895 L701 903.7868 L701 916.2132 L692.2132 925 L679.7868 925 L671 916.2132 Z" fill-rule="evenodd" clip-path="url(#clipPath2)"/>
      <text x="682.6631" xml:space="preserve" y="914.7139" clip-path="url(#clipPath2)" font-family="sans-serif" stroke="none">2</text>
    </g>
    <g fill="rgb(51,204,204)" text-rendering="geometricPrecision" shape-rendering="geometricPrecision" transform="matrix(1,0,0,1,-212,-317)" stroke="rgb(51,204,204)">
      <path d="M894.9 671.2868 L903.6868 662.5 L916.1132 662.5 L924.9 671.2868 L924.9 683.7132 L916.1132 692.5 L903.6868 692.5 L894.9 683.7132 Z" fill-rule="evenodd" clip-path="url(#clipPath2)" stroke="none"/>
    </g>
    <g text-rendering="geometricPrecision" stroke-miterlimit="1.45" shape-rendering="geometricPrecision" transform="matrix(1,0,0,1,-212,-317)" stroke-linecap="butt">
      <path fill="none" d="M894.9 671.2868 L903.6868 662.5 L916.1132 662.5 L924.9 671.2868 L924.9 683.7132 L916.1132 692.5 L903.6868 692.5 L894.9 683.7132 Z" fill-rule="evenodd" clip-path="url(#clipPath2)"/>
      <text x="906.5631" xml:space="preserve" y="682.2139" clip-path="url(#clipPath2)" font-family="sans-serif" stroke="none">1</text>
      <circle stroke-linecap="square" clip-path="url(#clipPath2)" r="15" cx="679.2115" cy="347.4258" stroke="none" stroke-miterlimit="10"/>
      <circle fill="none" r="15" clip-path="url(#clipPath2)" cx="679.2115" cy="347.4258"/>
      <path fill="none" d="M405.6867 591.6 L506.3382 504.2437" clip-path="url(#clipPath2)"/>
      <path d="M512.38 499 L500.04 503.0894 L505.583 504.8992 L506.5946 510.6417 Z" clip-path="url(#clipPath2)" stroke="none"/>
      <text x="426.9684" xml:space="preserve" y="584.2754" clip-path="url(#clipPath2)" font-family="sans-serif" stroke="none">12</text>
      <path fill="none" d="M536 499 L536 720.6" clip-path="url(#clipPath2)"/>
      <path d="M536 728.6 L541 716.6 L536 719.6 L531 716.6 Z" clip-path="url(#clipPath2)" stroke="none"/>
      <text x="544.3262" xml:space="preserve" y="617.2639" clip-path="url(#clipPath2)" font-family="sans-serif" stroke="none">11</text>
      <path fill="none" d="M503.1288 728.6 L421.726 677.8334" clip-path="url(#clipPath2)"/>
      <path d="M414.9378 673.6 L422.4741 684.1926 L422.5745 678.3625 L427.7659 675.7075 Z" clip-path="url(#clipPath2)" stroke="none"/>
      <text x="446.6984" xml:space="preserve" y="720.6233" clip-path="url(#clipPath2)" font-family="sans-serif" stroke="none">10</text>
      <path fill="none" d="M729.0089 698 L694.1334 749.1 L615.983 749.1" clip-path="url(#clipPath2)"/>
      <path d="M607.983 749.1 L619.983 754.1 L616.983 749.1 L619.983 744.1 Z" clip-path="url(#clipPath2)" stroke="none"/>
      <text x="703.4863" xml:space="preserve" y="714.1273" clip-path="url(#clipPath2)" font-family="sans-serif" stroke="none">4</text>
      <path fill="none" d="M608 432.2889 L787.6208 419.2886" clip-path="url(#clipPath2)"/>
      <path d="M795.6 418.7111 L783.2703 414.5904 L786.6235 419.3608 L783.9922 424.5643 Z" clip-path="url(#clipPath2)" stroke="none"/>
      <text x="728.4644" xml:space="preserve" y="413.5899" clip-path="url(#clipPath2)" font-family="sans-serif" stroke="none">1</text>
      <path fill="none" d="M853.5654 475 L761.5539 609.3988" clip-path="url(#clipPath2)"/>
      <path d="M757.0346 616 L767.9393 608.9227 L762.1188 608.5737 L759.6878 603.2736 Z" clip-path="url(#clipPath2)" stroke="none"/>
      <text x="825.245" xml:space="preserve" y="496.4155" clip-path="url(#clipPath2)" font-family="sans-serif" stroke="none">2</text>
      <path fill="none" d="M860.8365 803 L692.1334 749.1 L616 749.1" clip-path="url(#clipPath2)"/>
      <path d="M608 749.1 L620 754.1 L617 749.1 L620 744.1 Z" clip-path="url(#clipPath2)" stroke="none"/>
      <text x="857.2782" xml:space="preserve" y="795.937" clip-path="url(#clipPath2)" font-family="sans-serif" stroke="none">5</text>
      <path fill="none" d="M902.4667 475 L1035.037 552.9453" clip-path="url(#clipPath2)"/>
      <path d="M1041.9333 557 L1034.123 546.6077 L1034.175 552.4384 L1029.0547 555.2281 Z" clip-path="url(#clipPath2)" stroke="none"/>
      <text x="947.5254" xml:space="preserve" y="494.5899" clip-path="url(#clipPath2)" font-family="sans-serif" stroke="none">3</text>
      <path fill="none" d="M1061.62 639 L944.9408 796.5707" clip-path="url(#clipPath2)"/>
      <path d="M940.18 802.9999 L951.3394 796.3316 L945.5359 795.767 L943.3029 790.3806 Z" clip-path="url(#clipPath2)" stroke="none"/>
      <text x="1026.5303" xml:space="preserve" y="661.4627" clip-path="url(#clipPath2)" font-family="sans-serif" stroke="none">6</text>
      <path fill="none" d="M989.8083 885 L1071.9641 910.9873" clip-path="url(#clipPath2)"/>
      <path d="M1079.5917 913.4 L1069.6583 905.0138 L1071.0107 910.6857 L1066.6425 914.5482 Z" clip-path="url(#clipPath2)" stroke="none"/>
      <text x="1001.825" xml:space="preserve" y="904.9257" clip-path="url(#clipPath2)" font-family="sans-serif" stroke="none">8</text>
      <path fill="none" d="M1081.1937 639 L1138.3296 905.5776" clip-path="url(#clipPath2)"/>
      <path d="M1140.0062 913.4 L1142.3802 900.6186 L1138.12 904.5999 L1132.6023 902.7144 Z" clip-path="url(#clipPath2)" stroke="none"/>
      <text x="1094.0818" xml:space="preserve" y="662.1639" clip-path="url(#clipPath2)" font-family="sans-serif" stroke="none">7</text>
      <path fill="none" d="M1072.4 973.5209 L247.3755 957.7188 L227.8443 593.9492 L382.0667 525.5898 L450.0122 552.4453 L506.0958 504.2162" clip-path="url(#clipPath2)"/>
      <path d="M512.1614 499 L499.8029 503.0332 L505.3376 504.8682 L506.3231 510.6152 Z" clip-path="url(#clipPath2)" stroke="none"/>
      <text x="1057.9197" xml:space="preserve" y="988.9847" clip-path="url(#clipPath2)" font-family="sans-serif" stroke="none">9</text>
      <path fill="none" stroke-dasharray="6,2" d="M561.6464 810.6 L674.1901 900.5599" clip-path="url(#clipPath2)"/>
      <path fill="none" stroke-dasharray="6,2" d="M853 878.2071 L700.9631 907.1514" clip-path="url(#clipPath2)"/>
      <path fill="none" stroke-dasharray="6,2" d="M1018.8093 639 L924.9229 672.1893" clip-path="url(#clipPath2)"/>
      <path fill="none" stroke-dasharray="6,2" d="M871.4886 475 L907.0538 662.4954" clip-path="url(#clipPath2)"/>
      <path fill="none" stroke-dasharray="6,2" d="M894.8643 673.8064 L815 654.1873" clip-path="url(#clipPath2)"/>
      <path fill="none" d="M680.4797 362.3721 L686 427.4258 L787.6234 419.6329" clip-path="url(#clipPath2)"/>
      <path d="M795.6 419.0212 L783.2528 414.9534 L786.6263 419.7094 L784.0174 424.9241 Z" clip-path="url(#clipPath2)" stroke="none"/>
    </g>
  </g>
</svg>
